<?xml version="1.0" encoding="UTF-8" standalone="no"?>
<!-- Created with Inkscape (http://www.inkscape.org/) -->

<svg
   xmlns:dc="http://purl.org/dc/elements/1.1/"
   xmlns:cc="http://creativecommons.org/ns#"
   xmlns:rdf="http://www.w3.org/1999/02/22-rdf-syntax-ns#"
   xmlns:svg="http://www.w3.org/2000/svg"
   xmlns="http://www.w3.org/2000/svg"
   xmlns:sodipodi="http://sodipodi.sourceforge.net/DTD/sodipodi-0.dtd"
   xmlns:inkscape="http://www.inkscape.org/namespaces/inkscape"
   width="210mm"
   height="297mm"
   viewBox="0 0 744.09448819 1052.3622047"
   id="svg2"
   version="1.1"
   inkscape:version="0.91 r13725"
   sodipodi:docname="blood-sugars-logo.svg">
  <defs
     id="defs4" />
  <sodipodi:namedview
     id="base"
     pagecolor="#ffffff"
     bordercolor="#666666"
     borderopacity="1.0"
     inkscape:pageopacity="0.0"
     inkscape:pageshadow="2"
     inkscape:zoom="0.55681224"
     inkscape:cx="-909.34093"
     inkscape:cy="283.62828"
     inkscape:document-units="px"
     inkscape:current-layer="layer1"
     showgrid="false"
     inkscape:window-width="2160"
     inkscape:window-height="1311"
     inkscape:window-x="0"
     inkscape:window-y="55"
     inkscape:window-maximized="1" />
  <metadata
     id="metadata7">
    <rdf:RDF>
      <cc:Work
         rdf:about="">
        <dc:format>image/svg+xml</dc:format>
        <dc:type
           rdf:resource="http://purl.org/dc/dcmitype/StillImage" />
        <dc:title></dc:title>
      </cc:Work>
    </rdf:RDF>
  </metadata>
  <g
     inkscape:label="Layer 1"
     inkscape:groupmode="layer"
     id="layer1">
    <g
       id="g3383"
       transform="translate(-1272.1484,-421.92122)"
       style="fill:#ff0000">
      <g
         id="_x23_ffffffff"
         style="fill:#ff0000" />
      <path
         style="stroke:#000000;stroke-width:0.0938;fill:#ff0000"
         inkscape:connector-curvature="0"
         d="m 293.7337,556.9245 c 26.27,-5.48 53.15,-7.89 79.98,-7.77 41.24,0.13 81.64,10.91 120.16,24.92 37.98,14.18 74.69,31.71 109.91,51.76 52.97,30.25 104.02,65.13 146.38,109.35 6.33,-3.26 11.2,-8.66 16.46,-13.34 7.26,-7.04 14.38,-14.2401 21.02,-21.8701 8.47,-9.0699 19.49,-16.6299 32.13,-17.8799 13.87,25.04 27.89,50.11 44.81,73.25 -1.1201,3.77 -4.04,6.9 -5.81,10.45 -34.61,59.59 -50.39,128.17 -56.6801,196.2601 -12.22,-13.5901 -24.0699,-27.52 -36.5099,-40.92 -54.1801,-59.01 -112.64,-114.7 -178.79,-160.19 -45.07,-30.7 -94.11,-56.67 -147.12,-70.47 -25.7,-6.67 -52.26,-10.3 -78.83,-9.84 -13.58,0.86 -27.3,1.02 -40.62,4.05 -15.75,3.49 -31.29,7.96 -46.61,12.99 -25.85,13.6 -47.6,35.01 -61.21,60.9 -16.13,30.09 -22.04,64.57 -22.91,98.39 -1.17,31.41 5.06,62.65 14.66,92.44 13.35,40.9299 32.87,79.5699 54.73,116.5699 39.58,66.48 87.03,127.89 136.7,187.0901 48.57,57.7699 99.62,113.58 154.72,165.22 47.19,44.0499 97.26,85.3099 151.8,119.99 43.1,-26.85 86.2,-53.6901 129.28,-80.5601 2.49,-1.63 5.63,-0.6 8.42,-0.8999 45.41,-1.16 90.38,-8.5701 134.86,-17.3601 29.65,-5.88 59.09,-12.7999 88.43,-20.0499 -20.14,30.75 -46.65,56.65 -73.53,81.47 -29.41,26.5699 -60.97,50.62 -92.65,74.37 -30.7,22.76 -61.68,45.14 -92.98,67.0601 -24.73,16.88 -49.52,33.8999 -76.24,47.5199 -7.96,3.6101 -16.13,8.0901 -25.09,8.01 -6.44,-1.25 -12.11,-4.7899 -17.86,-7.7799 -16.81,-9.4801 -32.81,-20.3101 -48.77,-31.15 -65.47,-45 -129.01,-92.9301 -188.75,-145.34 -59.34,-51.8701 -115.3,-107.65 -166.99,-167.15 -51.83,-59.64 -100.07,-122.74 -140.06,-191 -20.75,-35.5601 -39.24,-72.51 -53.93,-111 -17.69,-46.26 -29.91,-94.89 -33.09,-144.42 -2.39,-40.86 0.6,-82.23 10.78,-121.94 10.13,-39.65 27.99,-77.39 52.89,-109.91 18.95,-24.86 41.54,-47.04 67.25,-64.87 32.78,-22.9302 70.55,-38.3202 109.66,-46.3502 z"
         id="path3349" />
    </g>
    <g
       transform="matrix(6.6398246,-2.4050772,2.3655078,7.0713288,-2882.6858,-6390.2555)"
       id="layer1-4"
       inkscape:label="Ebene 1"
       style="fill:#ff0000">
      <path
         sodipodi:nodetypes="cccccccccc"
         inkscape:connector-curvature="0"
         id="path8778"
         d="m 50.577851,947.92037 c -30.193322,22.10894 -41.2351508,57.08593 -42.0053339,62.86513 -1.4727832,11.0014 0.1212018,22.0028 11.1442719,33.0042 4.652906,3.7915 11.542316,6.0174 20.00254,7.1438 9.103357,-2.4729 18.034136,-1.4943 27.860681,-18.431 1.865606,-6.5178 3.868937,-12.9208 1.285878,-23.1458 -4.366323,-8.343 -11.980533,-17.18574 -21.288418,-26.28901 -5.350878,-4.20543 -5.099181,-9.70377 -5.715011,-15.00191 0.88005,-3.95288 1.851331,-7.90577 5.715011,-11.85865 11.568487,-14.50488 3.891876,-7.62631 3.000381,-8.28676 z"
         style="fill:#ff0000;fill-rule:evenodd;stroke:none;stroke-width:0.29055119;stroke-linecap:butt;stroke-linejoin:miter;stroke-miterlimit:4;stroke-dasharray:none;stroke-opacity:1" />
      <path
         sodipodi:nodetypes="cccccccccc"
         inkscape:connector-curvature="0"
         id="path8778-4"
         d="m 49.350466,947.80159 c -29.641565,22.76146 -39.8403509,57.98511 -40.4720968,63.78261 -1.2092441,11.0362 0.6457875,22.0068 11.9222408,32.7758 4.73954,3.6932 11.676428,5.7723 20.156639,6.7182 9.036991,-2.6684 17.983846,-1.8806 27.398523,-19.0326 1.708669,-6.5597 3.557684,-13.0075 0.732895,-23.1803 -4.56172,-8.2522 -12.380607,-16.93464 -21.898008,-25.84158 -5.446813,-4.09222 -5.326435,-9.59763 -6.068106,-14.8842 0.785074,-3.9729 1.661304,-7.94777 5.427583,-11.98449 11.213198,-14.75672 3.706855,-7.71186 2.80033,-8.35344 z"
         style="fill:#ff0000;fill-opacity:1;fill-rule:evenodd;stroke:none;stroke-width:0.29055119;stroke-linecap:butt;stroke-linejoin:miter;stroke-miterlimit:4;stroke-dasharray:none;stroke-opacity:1" />
      <path
         sodipodi:nodetypes="sssssssssssssssssssssss"
         inkscape:connector-curvature="0"
         id="path8772"
         d="m 48.677267,948.14436 c -7.238062,5.33276 -17.521664,14.96536 -24.020166,22.88367 -14.8530431,18.09816 -20.2884403,30.59447 -20.6795607,43.13107 -0.2927452,9.3834 3.4817529,18.9595 9.2703797,26.71 4.874641,6.5267 14.692674,11.4425 24.494564,11.5136 9.604722,0.07 17.59076,-2.653 23.44111,-8.2479 5.85035,-5.595 9.740353,-11.2001 10.468282,-20.433 1.079655,-13.6942 -6.095781,-24.63077 -11.897886,-31.12716 -1.846875,-2.06787 -5.932875,-5.998 -8.175143,-8.66869 -2.242268,-2.6707 -6.19311,-7.13745 -6.881114,-9.01919 -2.786865,-7.62229 -0.588406,-12.06597 1.724015,-15.43678 2.843396,-4.14482 0.773693,-3.78038 -1.427607,-1.4949 -3.650976,3.79059 -5.73375,11.25194 -2.578125,19.88281 0.977085,2.6724 3.105804,5.48684 5.435546,8.26172 2.329743,2.77488 4.88635,6.54762 6.292969,8.83203 4.75749,7.72636 8.816983,11.76076 7.863281,23.85746 -0.675602,8.5692 -3.310277,14.8017 -7.527343,19.291 -4.94243,5.2615 -8.866318,6.4897 -15.126869,6.3668 -9.933155,-0.1949 -19.091103,-4.1931 -23.436737,-10.5558 -4.345634,-6.3628 -6.811444,-13.3472 -6.8918563,-21.9817 -0.101258,-10.8729 7.8078113,-23.02859 21.0023373,-41.28245 5.845013,-8.08623 13.636288,-14.86397 20.023437,-20.92968 1.621848,-1.54023 1.127523,-3.39559 -1.373514,-1.55291 z"
         style="color:#000000;font-style:normal;font-variant:normal;font-weight:normal;font-stretch:normal;font-size:medium;line-height:normal;font-family:sans-serif;text-indent:0;text-align:start;text-decoration:none;text-decoration-line:none;text-decoration-style:solid;text-decoration-color:#000000;letter-spacing:normal;word-spacing:normal;text-transform:none;direction:ltr;block-progression:tb;writing-mode:lr-tb;baseline-shift:baseline;text-anchor:start;white-space:normal;clip-rule:nonzero;display:inline;overflow:visible;visibility:visible;opacity:1;isolation:auto;mix-blend-mode:normal;color-interpolation:sRGB;color-interpolation-filters:linearRGB;solid-color:#000000;solid-opacity:1;fill:#ff0000;fill-opacity:1;fill-rule:evenodd;stroke:none;stroke-width:3.18897629;stroke-linecap:butt;stroke-linejoin:miter;stroke-miterlimit:4;stroke-dasharray:none;stroke-dashoffset:0;stroke-opacity:1;color-rendering:auto;image-rendering:auto;shape-rendering:auto;text-rendering:auto;enable-background:accumulate" />
      <path
         sodipodi:nodetypes="ssssssss"
         inkscape:connector-curvature="0"
         id="path8776"
         d="m 32.325729,1030.7654 c -7.874072,5.9865 -16.12127,-8.0933 -17.468994,-13.5914 -1.472237,-6.0062 -1.306278,-12.3688 1.240966,-17.73508 3.680597,-7.75383 10.795102,-13.37873 12.228292,-12.43351 0.899747,0.59337 -3.600948,6.38088 -5.552599,11.873 -1.581196,4.44959 -0.937374,8.58369 1.238789,10.56789 2.865536,2.6127 7.163552,4.7239 9.401417,7.927 3.126726,4.4754 3.25887,10.0874 -1.087871,13.3921 z"
         style="fill:#ff0000;fill-opacity:1;fill-rule:evenodd;stroke:#000000;stroke-width:1.0629921;stroke-linecap:butt;stroke-linejoin:miter;stroke-miterlimit:4;stroke-dasharray:none;stroke-opacity:1" />
    </g>
    <path
       style="fill:#ffffff"
       d="m -281.48117,837.14435 c -8.21131,-1.43165 -33.06162,-14.46109 -45.34033,-23.7727 -26.46483,-20.06971 -44.36157,-41.30691 -58.35083,-69.24207 -29.98293,-59.87295 -29.48394,-123.67402 1.46079,-186.7775 8.75141,-17.84617 21.21244,-35.07544 21.34575,-29.51376 0.0371,1.54721 -1.97618,15.69022 -4.47393,31.4289 -8.83444,55.6671 -7.67353,83.01663 4.583,107.96897 9.13522,18.59788 18.42386,25.36025 48.75196,35.4927 37.09039,12.3917 53.43018,20.60275 65.98726,33.15983 17.74403,17.74403 26.23005,40.99506 22.1177,60.60079 -6.63507,31.63293 -26.25407,45.85524 -56.08137,40.65484 z"
       id="path3649"
       inkscape:connector-curvature="0" />
  </g>
</svg>
